# xmcd
#
# Track frame offsets:
#	150
#	14814
#	28358
#	42687
#	57052
#	70990
#	84984
#	99127
#	113462
#	128120
#	141370
#	155727
#
# Disc length: 2287 seconds
#
# Revision: 0
# Processed by: cddbd v1.5.2PL0 Copyright (c) Steve Scherf et al.
# Submitted via: audiograbber 1.83.01
#
DISCID=a508ed0c
DTITLE=Renate and Werner Leismann  - Spiel mir eine alte Melodie
DYEAR=1976
DGENRE=Schlager
TTITLE0=Schau nicht hin, schau nicht her 
TTITLE1=Spiel mir eine alte Melodie 
TTITLE2=Sing, Nachtigall, sing 
TTITLE3=Du schwarzer Zigeuner 
TTITLE4=Liebe ist ja nur ein Märchen 
TTITLE5=Und wieder geht ein schöner Tag zu Ende 
TTITLE6=Regentropfen
TTITLE7=Wozu ist die Straße da 
TTITLE8=La-Le-Lu 
TTITLE9=Ich hab mein Herz in Heidelberg verloren 
TTITLE10=Der Mond hält seine Wacht 
TTITLE11=Die kleine Stadt will schlafen gehn 
EXTD=
EXTT0=
EXTT1=
EXTT2=
EXTT3=
EXTT4=
EXTT5=
EXTT6=
EXTT7=
EXTT8=
EXTT9=
EXTT10=
EXTT11=
PLAYORDER=
